<svg id="Layer_1" data-name="Layer 1" xmlns="http://www.w3.org/2000/svg" viewBox="0 0 233.73 285.88"><defs><style>.cls-1{fill:#02205f;}.cls-2{fill:#0f4c89;}.cls-3{fill:#4bb649;}.cls-4{fill:#e33226;}.cls-5{opacity:0.36;}.cls-6{fill:#f3f3f3;}.cls-7{fill:#e6e6e5;}</style></defs><path class="cls-1" d="M249,234.58c-2.09.08-5.26.39-6.07.5l-.55.07h0c-1.28.19-2.58.35-3.87.51-3,.37-6.06.68-9.11.85a244,244,0,0,1-32.56-.37,147.47,147.47,0,0,1-22.67-3.56c-3.69-.9-7.33-1.91-10.93-3.08l-2-.67a113.49,113.49,0,0,1-35.4-19.66c-1.73-1.41-3.43-2.87-5.07-4.39-.5-.45-1-.91-1.48-1.39-.64-.59-1.27-1.2-1.9-1.83s-1.18-1.18-1.75-1.78A115.44,115.44,0,0,1,96.32,66.3c.37-.72.76-1.45,1.16-2.18A115,115,0,0,1,107.56,48.8q.63-.82,1.29-1.62A115.65,115.65,0,0,1,224,7c-.85.19-1.7.39-2.54.6l-.56.14-1.59.41-.38.11c-.45.11-.91.25-1.36.37s-.68.19-1,.3c-.51.14-1,.29-1.53.46s-1.27.39-1.89.6c-.89.29-1.78.59-2.65.91s-1.75.63-2.62,1l-2.48,1-.11,0q-1.24.51-2.46,1.05l-.49.22-.14.06-1.75.8-.52.25c-.69.32-1.38.65-2.06,1l-.33.16c-.74.37-1.47.74-2.18,1.13l-.14.07c-.8.43-1.59.86-2.37,1.3-1.53.86-3,1.75-4.53,2.68l-.48.3q-1,.64-2,1.32t-2.13,1.44l-.06,0-.09.06-.15.11q-1,.69-2,1.41t-2,1.47l-.26.2q-.68.51-1.35,1.05l-.69.54c-.64.52-1.27,1-1.89,1.56s-1.47,1.25-2.2,1.88l-.13.12q-1.14,1-2.25,2a.12.12,0,0,0,0,.05l-.09.09-.26.24L169,36.69l-.3.29-.1.09-.31.3c-.69.68-1.37,1.36-2,2.06s-1.32,1.38-2,2.08l-.41.45c-.54.58-1.06,1.17-1.58,1.77l-.09.11c-.09.09-.16.18-.24.27-.44.51-.87,1-1.3,1.53-.26.3-.51.6-.76.91-.58.72-1.16,1.44-1.73,2.17l-.09.12L158,49a1.83,1.83,0,0,1-.13.16c-.45.58-.9,1.17-1.33,1.76a2.43,2.43,0,0,1-.14.2,1,1,0,0,0-.13.17c-.47.63-.93,1.27-1.38,1.91-.17.23-.34.47-.5.71-.38.54-.75,1.08-1.11,1.63a.35.35,0,0,0-.05.08c-.24.35-.48.71-.71,1.07l-1.05,1.64c-.29.45-.57.9-.84,1.36-.19.3-.37.6-.55.91l-.09.16-.12.2c-.19.31-.37.62-.55.94l-.16.28c-.38.65-.75,1.3-1.11,2s-.78,1.43-1.15,2.14c-.07.12-.13.24-.19.36l-.51,1-.09.17c-.23.44-.45.88-.66,1.33,0,0,0,0,0,0-.29.59-.57,1.18-.85,1.78l0,.06q-.5,1.07-1,2.13c-.16.35-.32.71-.47,1.07l-.45,1.07c-.4,1-.78,1.92-1.16,2.9-.22.56-.43,1.13-.64,1.7-.28.76-.55,1.52-.81,2.29s-.44,1.27-.64,1.91c-.06.19-.12.38-.19.58l-.09.28-.08.26c-.13.43-.27.87-.39,1.3-.2.7-.41,1.4-.6,2.11-.14.5-.28,1-.41,1.52-.18.67-.35,1.34-.52,2l-.09.36c-.05.23-.11.46-.16.69-.16.69-.32,1.38-.46,2.07,0,0,0,0,0,.08a.43.43,0,0,0,0,.11c-.1.42-.18.85-.26,1.27s-.22,1.08-.32,1.63a1.29,1.29,0,0,0,0,.19l-.06.36c-.15.77-.28,1.54-.4,2.31s-.23,1.52-.34,2.28-.21,1.52-.3,2.29l-.15,1.34c-.13,1.16-.23,2.32-.32,3.5l-.09,1.17c0,.63-.08,1.28-.11,1.92a.91.91,0,0,0,0,.17q-.06,1.18-.09,2.37c0,.21,0,.42,0,.64s0,.42,0,.64c0,.42,0,.85,0,1.28v1.67c0,.82,0,1.64,0,2.46,0,.39,0,.78.05,1.18h0a0,0,0,0,0,0,0,114.81,114.81,0,0,0,24,66.05c.34.45.69.89,1,1.33l.39.48.79,1s0,0,0,0c.38.45.75.9,1.13,1.34l.07.09c.34.4.68.8,1,1.19l.21.24c.23.27.47.53.71.79l.1.12.19.21.05.06.63.68c.11.13.24.26.36.39l.76.81c.15.16.3.33.46.49l.42.43a1.37,1.37,0,0,0,.17.17c.28.3.57.59.85.88.13.14.26.27.4.4s.39.4.59.59l.08.08.61.6.06,0,.71.68.16.15.84.79,1,1,.12.1c.18.18.37.35.57.52l.1.09.58.51,0,0c.12.11.23.21.35.3l.06.06.58.5,0,0c.3.26.6.52.91.77.6.51,1.21,1,1.82,1.48l1.32,1.06,1.14.87.23.18,1.14.85,1.12.82.31.22,1,.72q1.2.84,2.43,1.65l.82.54.89.57.77.49.36.22.58.36.63.38,1.05.62.66.39c.66.39,1.32.76,2,1.13l.17.09.71.39.95.51.66.36.39.2.69.35.91.46.85.41.18.1c.57.27,1.14.55,1.72.81l.91.42c.71.33,1.44.64,2.16.95l.56.25,1.52.62,1,.39,1.41.55.78.29,1.14.42,1.32.47.23.08,1.43.48,1.53.49,1.55.47q.64.21,1.32.39l.47.14,1.31.36,1.55.4.14,0,1.41.34c3.25.77,6.71,1.15,10,1.6.7.09,1.41.18,2.11.25C238,234.16,244.67,234.49,249,234.58Z" transform="translate(-83.27 -4.18)"/><path class="cls-2" d="M250.75,234.6l-1.62,0A9.8,9.8,0,0,1,250.75,234.6Z" transform="translate(-83.27 -4.18)"/><path class="cls-3" d="M317,290.06c-.11-4.87-3.26-10.6-5.27-14.92-7.59-16.35-19.11-31.1-37.15-36.19-11.65-3.28-25-2.35-36.69-3.8-23-2.84-44.81-11-62.44-26.08a118.92,118.92,0,0,1-41.57-88.82c.17,23.73,13.9,46,34.74,57.23,12.57,6.75,27.39,8.1,41.42,7.38,14.71-.76,29,2.93,42.08,9.54A126.36,126.36,0,0,1,290,224.13c14,16.09,24.06,35.92,26.44,57.29C316.74,284.29,316.94,287.17,317,290.06Z" transform="translate(-83.27 -4.18)"/><path class="cls-4" d="M314.19,119.63a115.46,115.46,0,0,1-5.33,34.77c-.2.64-.4,1.28-.62,1.91a115,115,0,0,1-20.84,37.28,61.14,61.14,0,0,0-44.67-26.3A64.86,64.86,0,0,0,220.91,58.67c-.65-.25-1.3-.47-2-.68a64.67,64.67,0,0,0-20.22-3.22H198c-.73,0-1.47,0-2.18.06a64.87,64.87,0,0,0-61.89,64c0-.43,0-.86,0-1.28,0-.22,0-.43,0-.64s0-.43,0-.64q0-1.18.09-2.37a.91.91,0,0,1,0-.17c0-.64.07-1.29.11-1.92l.09-1.17c.09-1.18.19-2.34.32-3.5l.15-1.34c.09-.77.19-1.53.3-2.29s.22-1.52.34-2.28.25-1.54.4-2.31l.06-.36a1.29,1.29,0,0,1,0-.19c.1-.55.2-1.08.32-1.63s.17-.85.26-1.27a.43.43,0,0,1,0-.11s0,0,0-.08c.14-.69.3-1.38.46-2.07.05-.23.11-.46.16-.69l.09-.36c.17-.68.34-1.35.52-2,.13-.51.27-1,.41-1.52l.6-2.11c.12-.43.26-.87.39-1.3l.08-.26.09-.28c.07-.2.13-.39.19-.58.21-.64.42-1.28.64-1.91s.53-1.53.81-2.29c.21-.57.42-1.14.64-1.7.38-1,.76-1.94,1.16-2.9l.45-1.07c.15-.36.31-.72.47-1.07q.47-1.07,1-2.13l0-.06c.28-.6.56-1.19.85-1.78,0,0,0,0,0,0,.21-.45.43-.89.66-1.33l.09-.17.51-1c.06-.12.12-.24.19-.36.37-.71.75-1.43,1.15-2.14s.73-1.31,1.11-2l.16-.28c.18-.32.36-.63.55-.94l.12-.2.09-.16c.18-.31.36-.61.55-.91.27-.46.55-.91.84-1.36l1.05-1.64c.23-.36.47-.72.71-1.07a.35.35,0,0,1,.05-.08c.36-.55.73-1.09,1.11-1.63.16-.24.33-.48.5-.71.45-.64.91-1.28,1.38-1.91a1,1,0,0,1,.13-.17,2.43,2.43,0,0,0,.14-.2c.43-.59.88-1.18,1.33-1.76A1.83,1.83,0,0,0,158,49l.09-.12.09-.12c.57-.73,1.15-1.45,1.73-2.17.25-.31.5-.61.76-.91.43-.52.86-1,1.3-1.53.08-.09.15-.18.24-.27l.09-.11c.52-.6,1-1.19,1.58-1.77l.41-.45c.64-.7,1.3-1.4,2-2.08s1.34-1.38,2-2.06l.31-.3.1-.09.3-.29,1.25-1.19.26-.24.09-.09a.12.12,0,0,1,0-.05q1.11-1,2.25-2l.13-.12c.73-.63,1.46-1.26,2.2-1.88s1.25-1,1.89-1.56l.69-.54q.67-.54,1.35-1.05l.26-.2q1-.75,2-1.47t2-1.41l.15-.11.09-.06.06,0q1.05-.74,2.13-1.44t2-1.32l.48-.3c1.48-.93,3-1.82,4.53-2.68.78-.44,1.57-.87,2.37-1.3l.14-.07c.71-.39,1.44-.76,2.18-1.13l.33-.16c.68-.35,1.37-.68,2.06-1l.52-.25,1.75-.8.14-.06.49-.22q1.21-.54,2.46-1.05l.11,0,2.48-1c.87-.34,1.74-.66,2.62-1s1.76-.62,2.65-.91q.93-.31,1.89-.6c.51-.17,1-.32,1.53-.46.33-.11.67-.21,1-.3s.91-.26,1.36-.37l.38-.11,1.59-.41.56-.14c.84-.21,1.69-.41,2.54-.6a113.74,113.74,0,0,1,24.61,8.53c.61.29,1.22.59,1.82.9,2.59,1.3,5.14,2.7,7.62,4.19l2.11,1.3a115.79,115.79,0,0,1,48.57,62.66c.26.8.5,1.6.73,2.41h0c.37,1.25.72,2.51,1,3.78.21.83.41,1.66.6,2.5A115.32,115.32,0,0,1,314.19,119.63Z" transform="translate(-83.27 -4.18)"/><g class="cls-5"><path class="cls-6" d="M128,134.41l-10.64,67.15c-.59-.58-1.18-1.18-1.75-1.78l9.72-61.29-21.75,13.92,12.59-45L96.32,66.3c.37-.72.76-1.45,1.16-2.18l20.85,43.1L107,147.91Z" transform="translate(-83.27 -4.18)"/><path class="cls-6" d="M163.7,211.76l-.47,17.74-2-.67.43-16.27L134,184.64l-13.27,20.14c-.5-.45-1-.91-1.48-1.39l14.44-21.91Z" transform="translate(-83.27 -4.18)"/><path class="cls-6" d="M183.55,24.74l14.4,30c-.73,0-1.47,0-2.18.06L182.3,26.75l-7.05,4.33L130.2,58.75l-22.64-10q.63-.82,1.29-1.62l21.2,9.31,53.09-32.61Z" transform="translate(-83.27 -4.18)"/><path class="cls-6" d="M250.47,16.39,220.91,58.67c-.65-.25-1.3-.47-2-.68l29.7-42.5C249.26,15.78,249.87,16.08,250.47,16.39Z" transform="translate(-83.27 -4.18)"/><path class="cls-6" d="M309.5,87,262,69.47l-3.9-48.89,2.11,1.3L263.88,68l44.89,16.51C309,85.34,309.27,86.14,309.5,87Z" transform="translate(-83.27 -4.18)"/><path class="cls-6" d="M275.64,139.48l33.22,14.92c-.2.64-.4,1.28-.62,1.91l-35.73-16,38-49.54c.21.83.41,1.66.6,2.5Z" transform="translate(-83.27 -4.18)"/></g><path class="cls-7" d="M120.59,107.75a3.87,3.87,0,1,1-3.87-3.86A3.87,3.87,0,0,1,120.59,107.75Z" transform="translate(-83.27 -4.18)"/><path class="cls-7" d="M133.88,57.63A3.87,3.87,0,1,1,130,53.76,3.87,3.87,0,0,1,133.88,57.63Z" transform="translate(-83.27 -4.18)"/><path class="cls-7" d="M186,25.63a3.87,3.87,0,1,1-3.86-3.86A3.86,3.86,0,0,1,186,25.63Z" transform="translate(-83.27 -4.18)"/><path class="cls-7" d="M266.31,68.93a3.87,3.87,0,1,1-3.86-3.87A3.86,3.86,0,0,1,266.31,68.93Z" transform="translate(-83.27 -4.18)"/><path class="cls-7" d="M279.29,138.94a3.87,3.87,0,1,1-3.87-3.87A3.87,3.87,0,0,1,279.29,138.94Z" transform="translate(-83.27 -4.18)"/><path class="cls-7" d="M131.89,135.07a3.87,3.87,0,1,1-3.86-3.86A3.86,3.86,0,0,1,131.89,135.07Z" transform="translate(-83.27 -4.18)"/><circle class="cls-7" cx="20.42" cy="148.12" r="3.87"/><path class="cls-7" d="M137.84,183.15a3.87,3.87,0,1,1-3.86-3.87A3.87,3.87,0,0,1,137.84,183.15Z" transform="translate(-83.27 -4.18)"/><path class="cls-7" d="M166.15,212.71a3.87,3.87,0,1,1-3.87-3.87A3.86,3.86,0,0,1,166.15,212.71Z" transform="translate(-83.27 -4.18)"/></svg>